<svg xmlns="http://www.w3.org/2000/svg" viewBox="0 0 1600 900" preserveAspectRatio="xMidYMid slice"><defs><linearGradient id="wall" x1="0" y1="0" x2="0" y2="1"><stop offset="0" stop-color="#eef2f5"/><stop offset="1" stop-color="#dfe6ec"/></linearGradient><linearGradient id="floor" x1="0" y1="0" x2="0" y2="1"><stop offset="0" stop-color="#bfae96"/><stop offset="1" stop-color="#9f8b72"/></linearGradient><linearGradient id="sky1" x1="0" y1="0" x2="0" y2="1"><stop offset="0" stop-color="#9fc6e6"/><stop offset="1" stop-color="#e4f0f8"/></linearGradient><clipPath id="clip1"><rect x="70" y="120" width="440" height="400"/></clipPath><linearGradient id="sky2" x1="0" y1="0" x2="0" y2="1"><stop offset="0" stop-color="#9fc6e6"/><stop offset="1" stop-color="#e4f0f8"/></linearGradient><clipPath id="clip2"><rect x="1090" y="120" width="440" height="400"/></clipPath></defs><rect x="0" y="0" width="1600" height="900" rx="0" fill="url(#wall)" /><rect x="0" y="0" width="1600" height="64" rx="0" fill="#f6f8fa" /><rect x="140" y="22" width="200" height="14" rx="4" fill="#ffffff" opacity=".95"/><rect x="520" y="22" width="200" height="14" rx="4" fill="#ffffff" opacity=".95"/><rect x="900" y="22" width="200" height="14" rx="4" fill="#ffffff" opacity=".95"/><rect x="1280" y="22" width="200" height="14" rx="4" fill="#ffffff" opacity=".95"/><rect x="60" y="110" width="460" height="420" rx="4" fill="#c9d2d9" /><g clip-path="url(#clip1)"><rect x="70" y="120" width="440" height="400" rx="0" fill="url(#sky1)" /><rect x="50" y="285" width="48" height="235" rx="0" fill="#b8cad9" /><rect x="58" y="299" width="7" height="10" rx="0" fill="#ffffff" opacity=".35"/><rect x="74" y="299" width="7" height="10" rx="0" fill="#ffffff" opacity=".35"/><rect x="58" y="321" width="7" height="10" rx="0" fill="#ffffff" opacity=".35"/><rect x="74" y="343" width="7" height="10" rx="0" fill="#ffffff" opacity=".35"/><rect x="58" y="365" width="7" height="10" rx="0" fill="#ffffff" opacity=".35"/><rect x="58" y="387" width="7" height="10" rx="0" fill="#ffffff" opacity=".35"/><rect x="58" y="409" width="7" height="10" rx="0" fill="#ffffff" opacity=".35"/><rect x="74" y="409" width="7" height="10" rx="0" fill="#ffffff" opacity=".35"/><rect x="74" y="431" width="7" height="10" rx="0" fill="#ffffff" opacity=".35"/><rect x="58" y="475" width="7" height="10" rx="0" fill="#ffffff" opacity=".35"/><rect x="74" y="475" width="7" height="10" rx="0" fill="#ffffff" opacity=".35"/><rect x="58" y="497" width="7" height="10" rx="0" fill="#ffffff" opacity=".35"/><rect x="106" y="375" width="83" height="145" rx="0" fill="#a9bdcf" /><rect x="130" y="389" width="7" height="10" rx="0" fill="#ffffff" opacity=".35"/><rect x="114" y="411" width="7" height="10" rx="0" fill="#ffffff" opacity=".35"/><rect x="114" y="433" width="7" height="10" rx="0" fill="#ffffff" opacity=".35"/><rect x="162" y="433" width="7" height="10" rx="0" fill="#ffffff" opacity=".35"/><rect x="130" y="455" width="7" height="10" rx="0" fill="#ffffff" opacity=".35"/><rect x="114" y="477" width="7" height="10" rx="0" fill="#ffffff" opacity=".35"/><rect x="146" y="477" width="7" height="10" rx="0" fill="#ffffff" opacity=".35"/><rect x="178" y="477" width="7" height="10" rx="0" fill="#ffffff" opacity=".35"/><rect x="114" y="499" width="7" height="10" rx="0" fill="#ffffff" opacity=".35"/><rect x="146" y="499" width="7" height="10" rx="0" fill="#ffffff" opacity=".35"/><rect x="178" y="499" width="7" height="10" rx="0" fill="#ffffff" opacity=".35"/><rect x="191" y="368" width="70" height="152" rx="0" fill="#c9d7e3" /><rect x="215" y="382" width="7" height="10" rx="0" fill="#ffffff" opacity=".35"/><rect x="231" y="382" width="7" height="10" rx="0" fill="#ffffff" opacity=".35"/><rect x="247" y="382" width="7" height="10" rx="0" fill="#ffffff" opacity=".35"/><rect x="231" y="404" width="7" height="10" rx="0" fill="#ffffff" opacity=".35"/><rect x="247" y="404" width="7" height="10" rx="0" fill="#ffffff" opacity=".35"/><rect x="199" y="426" width="7" height="10" rx="0" fill="#ffffff" opacity=".35"/><rect x="231" y="426" width="7" height="10" rx="0" fill="#ffffff" opacity=".35"/><rect x="247" y="426" width="7" height="10" rx="0" fill="#ffffff" opacity=".35"/><rect x="199" y="448" width="7" height="10" rx="0" fill="#ffffff" opacity=".35"/><rect x="215" y="448" width="7" height="10" rx="0" fill="#ffffff" opacity=".35"/><rect x="231" y="448" width="7" height="10" rx="0" fill="#ffffff" opacity=".35"/><rect x="231" y="470" width="7" height="10" rx="0" fill="#ffffff" opacity=".35"/><rect x="247" y="470" width="7" height="10" rx="0" fill="#ffffff" opacity=".35"/><rect x="199" y="492" width="7" height="10" rx="0" fill="#ffffff" opacity=".35"/><rect x="247" y="492" width="7" height="10" rx="0" fill="#ffffff" opacity=".35"/><rect x="271" y="327" width="54" height="193" rx="0" fill="#c9d7e3" /><rect x="279" y="341" width="7" height="10" rx="0" fill="#ffffff" opacity=".35"/><rect x="311" y="341" width="7" height="10" rx="0" fill="#ffffff" opacity=".35"/><rect x="295" y="385" width="7" height="10" rx="0" fill="#ffffff" opacity=".35"/><rect x="311" y="407" width="7" height="10" rx="0" fill="#ffffff" opacity=".35"/><rect x="279" y="429" width="7" height="10" rx="0" fill="#ffffff" opacity=".35"/><rect x="311" y="429" width="7" height="10" rx="0" fill="#ffffff" opacity=".35"/><rect x="295" y="451" width="7" height="10" rx="0" fill="#ffffff" opacity=".35"/><rect x="311" y="451" width="7" height="10" rx="0" fill="#ffffff" opacity=".35"/><rect x="311" y="473" width="7" height="10" rx="0" fill="#ffffff" opacity=".35"/><rect x="295" y="495" width="7" height="10" rx="0" fill="#ffffff" opacity=".35"/><rect x="311" y="495" width="7" height="10" rx="0" fill="#ffffff" opacity=".35"/><rect x="335" y="229" width="79" height="291" rx="0" fill="#c9d7e3" /><rect x="343" y="243" width="7" height="10" rx="0" fill="#ffffff" opacity=".35"/><rect x="359" y="265" width="7" height="10" rx="0" fill="#ffffff" opacity=".35"/><rect x="375" y="265" width="7" height="10" rx="0" fill="#ffffff" opacity=".35"/><rect x="375" y="287" width="7" height="10" rx="0" fill="#ffffff" opacity=".35"/><rect x="343" y="309" width="7" height="10" rx="0" fill="#ffffff" opacity=".35"/><rect x="375" y="309" width="7" height="10" rx="0" fill="#ffffff" opacity=".35"/><rect x="343" y="331" width="7" height="10" rx="0" fill="#ffffff" opacity=".35"/><rect x="359" y="331" width="7" height="10" rx="0" fill="#ffffff" opacity=".35"/><rect x="391" y="331" width="7" height="10" rx="0" fill="#ffffff" opacity=".35"/><rect x="343" y="353" width="7" height="10" rx="0" fill="#ffffff" opacity=".35"/><rect x="359" y="353" width="7" height="10" rx="0" fill="#ffffff" opacity=".35"/><rect x="375" y="353" width="7" height="10" rx="0" fill="#ffffff" opacity=".35"/><rect x="375" y="375" width="7" height="10" rx="0" fill="#ffffff" opacity=".35"/><rect x="343" y="397" width="7" height="10" rx="0" fill="#ffffff" opacity=".35"/><rect x="359" y="397" width="7" height="10" rx="0" fill="#ffffff" opacity=".35"/><rect x="375" y="397" width="7" height="10" rx="0" fill="#ffffff" opacity=".35"/><rect x="391" y="397" width="7" height="10" rx="0" fill="#ffffff" opacity=".35"/><rect x="359" y="419" width="7" height="10" rx="0" fill="#ffffff" opacity=".35"/><rect x="375" y="419" width="7" height="10" rx="0" fill="#ffffff" opacity=".35"/><rect x="375" y="441" width="7" height="10" rx="0" fill="#ffffff" opacity=".35"/><rect x="343" y="463" width="7" height="10" rx="0" fill="#ffffff" opacity=".35"/><rect x="359" y="463" width="7" height="10" rx="0" fill="#ffffff" opacity=".35"/><rect x="375" y="463" width="7" height="10" rx="0" fill="#ffffff" opacity=".35"/><rect x="343" y="485" width="7" height="10" rx="0" fill="#ffffff" opacity=".35"/><rect x="359" y="485" width="7" height="10" rx="0" fill="#ffffff" opacity=".35"/><rect x="375" y="485" width="7" height="10" rx="0" fill="#ffffff" opacity=".35"/><rect x="391" y="507" width="7" height="10" rx="0" fill="#ffffff" opacity=".35"/><rect x="424" y="423" width="81" height="97" rx="0" fill="#a9bdcf" /><rect x="480" y="437" width="7" height="10" rx="0" fill="#ffffff" opacity=".35"/><rect x="448" y="459" width="7" height="10" rx="0" fill="#ffffff" opacity=".35"/><rect x="464" y="459" width="7" height="10" rx="0" fill="#ffffff" opacity=".35"/><rect x="480" y="459" width="7" height="10" rx="0" fill="#ffffff" opacity=".35"/><rect x="432" y="481" width="7" height="10" rx="0" fill="#ffffff" opacity=".35"/><rect x="448" y="481" width="7" height="10" rx="0" fill="#ffffff" opacity=".35"/><rect x="480" y="481" width="7" height="10" rx="0" fill="#ffffff" opacity=".35"/><rect x="432" y="503" width="7" height="10" rx="0" fill="#ffffff" opacity=".35"/><rect x="464" y="503" width="7" height="10" rx="0" fill="#ffffff" opacity=".35"/><rect x="507" y="221" width="77" height="299" rx="0" fill="#b8cad9" /><rect x="547" y="235" width="7" height="10" rx="0" fill="#ffffff" opacity=".35"/><rect x="547" y="257" width="7" height="10" rx="0" fill="#ffffff" opacity=".35"/><rect x="563" y="257" width="7" height="10" rx="0" fill="#ffffff" opacity=".35"/><rect x="515" y="279" width="7" height="10" rx="0" fill="#ffffff" opacity=".35"/><rect x="531" y="279" width="7" height="10" rx="0" fill="#ffffff" opacity=".35"/><rect x="563" y="279" width="7" height="10" rx="0" fill="#ffffff" opacity=".35"/><rect x="515" y="301" width="7" height="10" rx="0" fill="#ffffff" opacity=".35"/><rect x="531" y="301" width="7" height="10" rx="0" fill="#ffffff" opacity=".35"/><rect x="563" y="301" width="7" height="10" rx="0" fill="#ffffff" opacity=".35"/><rect x="515" y="323" width="7" height="10" rx="0" fill="#ffffff" opacity=".35"/><rect x="531" y="323" width="7" height="10" rx="0" fill="#ffffff" opacity=".35"/><rect x="515" y="345" width="7" height="10" rx="0" fill="#ffffff" opacity=".35"/><rect x="531" y="345" width="7" height="10" rx="0" fill="#ffffff" opacity=".35"/><rect x="547" y="345" width="7" height="10" rx="0" fill="#ffffff" opacity=".35"/><rect x="531" y="367" width="7" height="10" rx="0" fill="#ffffff" opacity=".35"/><rect x="547" y="367" width="7" height="10" rx="0" fill="#ffffff" opacity=".35"/><rect x="547" y="389" width="7" height="10" rx="0" fill="#ffffff" opacity=".35"/><rect x="531" y="411" width="7" height="10" rx="0" fill="#ffffff" opacity=".35"/><rect x="563" y="411" width="7" height="10" rx="0" fill="#ffffff" opacity=".35"/><rect x="531" y="433" width="7" height="10" rx="0" fill="#ffffff" opacity=".35"/><rect x="547" y="433" width="7" height="10" rx="0" fill="#ffffff" opacity=".35"/><rect x="515" y="455" width="7" height="10" rx="0" fill="#ffffff" opacity=".35"/><rect x="515" y="477" width="7" height="10" rx="0" fill="#ffffff" opacity=".35"/><rect x="531" y="477" width="7" height="10" rx="0" fill="#ffffff" opacity=".35"/><rect x="547" y="477" width="7" height="10" rx="0" fill="#ffffff" opacity=".35"/><rect x="563" y="499" width="7" height="10" rx="0" fill="#ffffff" opacity=".35"/></g><rect x="66" y="120" width="8" height="400" rx="0" fill="#d7dee4" /><rect x="176" y="120" width="8" height="400" rx="0" fill="#d7dee4" /><rect x="286" y="120" width="8" height="400" rx="0" fill="#d7dee4" /><rect x="396" y="120" width="8" height="400" rx="0" fill="#d7dee4" /><rect x="506" y="120" width="8" height="400" rx="0" fill="#d7dee4" /><rect x="70" y="300.0" width="440" height="6" rx="0" fill="#d7dee4" /><rect x="1080" y="110" width="460" height="420" rx="4" fill="#c9d2d9" /><g clip-path="url(#clip2)"><rect x="1090" y="120" width="440" height="400" rx="0" fill="url(#sky2)" /><rect x="1070" y="416" width="95" height="104" rx="0" fill="#b8cad9" /><rect x="1078" y="430" width="7" height="10" rx="0" fill="#ffffff" opacity=".35"/><rect x="1142" y="430" width="7" height="10" rx="0" fill="#ffffff" opacity=".35"/><rect x="1126" y="452" width="7" height="10" rx="0" fill="#ffffff" opacity=".35"/><rect x="1142" y="452" width="7" height="10" rx="0" fill="#ffffff" opacity=".35"/><rect x="1078" y="474" width="7" height="10" rx="0" fill="#ffffff" opacity=".35"/><rect x="1142" y="474" width="7" height="10" rx="0" fill="#ffffff" opacity=".35"/><rect x="1078" y="496" width="7" height="10" rx="0" fill="#ffffff" opacity=".35"/><rect x="1094" y="496" width="7" height="10" rx="0" fill="#ffffff" opacity=".35"/><rect x="1110" y="496" width="7" height="10" rx="0" fill="#ffffff" opacity=".35"/><rect x="1126" y="496" width="7" height="10" rx="0" fill="#ffffff" opacity=".35"/><rect x="1142" y="496" width="7" height="10" rx="0" fill="#ffffff" opacity=".35"/><rect x="1172" y="322" width="64" height="198" rx="0" fill="#c9d7e3" /><rect x="1180" y="336" width="7" height="10" rx="0" fill="#ffffff" opacity=".35"/><rect x="1196" y="336" width="7" height="10" rx="0" fill="#ffffff" opacity=".35"/><rect x="1212" y="336" width="7" height="10" rx="0" fill="#ffffff" opacity=".35"/><rect x="1180" y="358" width="7" height="10" rx="0" fill="#ffffff" opacity=".35"/><rect x="1196" y="358" width="7" height="10" rx="0" fill="#ffffff" opacity=".35"/><rect x="1212" y="358" width="7" height="10" rx="0" fill="#ffffff" opacity=".35"/><rect x="1180" y="380" width="7" height="10" rx="0" fill="#ffffff" opacity=".35"/><rect x="1196" y="380" width="7" height="10" rx="0" fill="#ffffff" opacity=".35"/><rect x="1196" y="402" width="7" height="10" rx="0" fill="#ffffff" opacity=".35"/><rect x="1212" y="402" width="7" height="10" rx="0" fill="#ffffff" opacity=".35"/><rect x="1180" y="424" width="7" height="10" rx="0" fill="#ffffff" opacity=".35"/><rect x="1212" y="424" width="7" height="10" rx="0" fill="#ffffff" opacity=".35"/><rect x="1196" y="446" width="7" height="10" rx="0" fill="#ffffff" opacity=".35"/><rect x="1180" y="468" width="7" height="10" rx="0" fill="#ffffff" opacity=".35"/><rect x="1212" y="468" width="7" height="10" rx="0" fill="#ffffff" opacity=".35"/><rect x="1212" y="490" width="7" height="10" rx="0" fill="#ffffff" opacity=".35"/><rect x="1242" y="302" width="71" height="218" rx="0" fill="#c9d7e3" /><rect x="1266" y="316" width="7" height="10" rx="0" fill="#ffffff" opacity=".35"/><rect x="1250" y="338" width="7" height="10" rx="0" fill="#ffffff" opacity=".35"/><rect x="1250" y="360" width="7" height="10" rx="0" fill="#ffffff" opacity=".35"/><rect x="1266" y="360" width="7" height="10" rx="0" fill="#ffffff" opacity=".35"/><rect x="1282" y="360" width="7" height="10" rx="0" fill="#ffffff" opacity=".35"/><rect x="1250" y="382" width="7" height="10" rx="0" fill="#ffffff" opacity=".35"/><rect x="1282" y="382" width="7" height="10" rx="0" fill="#ffffff" opacity=".35"/><rect x="1250" y="404" width="7" height="10" rx="0" fill="#ffffff" opacity=".35"/><rect x="1298" y="404" width="7" height="10" rx="0" fill="#ffffff" opacity=".35"/><rect x="1250" y="426" width="7" height="10" rx="0" fill="#ffffff" opacity=".35"/><rect x="1298" y="426" width="7" height="10" rx="0" fill="#ffffff" opacity=".35"/><rect x="1250" y="448" width="7" height="10" rx="0" fill="#ffffff" opacity=".35"/><rect x="1266" y="448" width="7" height="10" rx="0" fill="#ffffff" opacity=".35"/><rect x="1250" y="470" width="7" height="10" rx="0" fill="#ffffff" opacity=".35"/><rect x="1250" y="492" width="7" height="10" rx="0" fill="#ffffff" opacity=".35"/><rect x="1282" y="492" width="7" height="10" rx="0" fill="#ffffff" opacity=".35"/><rect x="1319" y="372" width="77" height="148" rx="0" fill="#c9d7e3" /><rect x="1343" y="386" width="7" height="10" rx="0" fill="#ffffff" opacity=".35"/><rect x="1359" y="386" width="7" height="10" rx="0" fill="#ffffff" opacity=".35"/><rect x="1327" y="408" width="7" height="10" rx="0" fill="#ffffff" opacity=".35"/><rect x="1343" y="408" width="7" height="10" rx="0" fill="#ffffff" opacity=".35"/><rect x="1375" y="408" width="7" height="10" rx="0" fill="#ffffff" opacity=".35"/><rect x="1343" y="430" width="7" height="10" rx="0" fill="#ffffff" opacity=".35"/><rect x="1359" y="430" width="7" height="10" rx="0" fill="#ffffff" opacity=".35"/><rect x="1375" y="430" width="7" height="10" rx="0" fill="#ffffff" opacity=".35"/><rect x="1343" y="452" width="7" height="10" rx="0" fill="#ffffff" opacity=".35"/><rect x="1375" y="452" width="7" height="10" rx="0" fill="#ffffff" opacity=".35"/><rect x="1343" y="474" width="7" height="10" rx="0" fill="#ffffff" opacity=".35"/><rect x="1359" y="474" width="7" height="10" rx="0" fill="#ffffff" opacity=".35"/><rect x="1327" y="496" width="7" height="10" rx="0" fill="#ffffff" opacity=".35"/><rect x="1343" y="496" width="7" height="10" rx="0" fill="#ffffff" opacity=".35"/><rect x="1375" y="496" width="7" height="10" rx="0" fill="#ffffff" opacity=".35"/><rect x="1398" y="367" width="90" height="153" rx="0" fill="#b8cad9" /><rect x="1422" y="381" width="7" height="10" rx="0" fill="#ffffff" opacity=".35"/><rect x="1406" y="403" width="7" height="10" rx="0" fill="#ffffff" opacity=".35"/><rect x="1422" y="403" width="7" height="10" rx="0" fill="#ffffff" opacity=".35"/><rect x="1438" y="403" width="7" height="10" rx="0" fill="#ffffff" opacity=".35"/><rect x="1406" y="425" width="7" height="10" rx="0" fill="#ffffff" opacity=".35"/><rect x="1422" y="425" width="7" height="10" rx="0" fill="#ffffff" opacity=".35"/><rect x="1438" y="425" width="7" height="10" rx="0" fill="#ffffff" opacity=".35"/><rect x="1470" y="425" width="7" height="10" rx="0" fill="#ffffff" opacity=".35"/><rect x="1422" y="447" width="7" height="10" rx="0" fill="#ffffff" opacity=".35"/><rect x="1470" y="447" width="7" height="10" rx="0" fill="#ffffff" opacity=".35"/><rect x="1438" y="469" width="7" height="10" rx="0" fill="#ffffff" opacity=".35"/><rect x="1470" y="469" width="7" height="10" rx="0" fill="#ffffff" opacity=".35"/><rect x="1406" y="491" width="7" height="10" rx="0" fill="#ffffff" opacity=".35"/><rect x="1438" y="491" width="7" height="10" rx="0" fill="#ffffff" opacity=".35"/><rect x="1454" y="491" width="7" height="10" rx="0" fill="#ffffff" opacity=".35"/><rect x="1490" y="288" width="84" height="232" rx="0" fill="#b8cad9" /><rect x="1514" y="302" width="7" height="10" rx="0" fill="#ffffff" opacity=".35"/><rect x="1530" y="302" width="7" height="10" rx="0" fill="#ffffff" opacity=".35"/><rect x="1546" y="302" width="7" height="10" rx="0" fill="#ffffff" opacity=".35"/><rect x="1562" y="302" width="7" height="10" rx="0" fill="#ffffff" opacity=".35"/><rect x="1498" y="324" width="7" height="10" rx="0" fill="#ffffff" opacity=".35"/><rect x="1546" y="324" width="7" height="10" rx="0" fill="#ffffff" opacity=".35"/><rect x="1562" y="324" width="7" height="10" rx="0" fill="#ffffff" opacity=".35"/><rect x="1514" y="346" width="7" height="10" rx="0" fill="#ffffff" opacity=".35"/><rect x="1530" y="346" width="7" height="10" rx="0" fill="#ffffff" opacity=".35"/><rect x="1546" y="346" width="7" height="10" rx="0" fill="#ffffff" opacity=".35"/><rect x="1514" y="368" width="7" height="10" rx="0" fill="#ffffff" opacity=".35"/><rect x="1546" y="368" width="7" height="10" rx="0" fill="#ffffff" opacity=".35"/><rect x="1498" y="390" width="7" height="10" rx="0" fill="#ffffff" opacity=".35"/><rect x="1514" y="390" width="7" height="10" rx="0" fill="#ffffff" opacity=".35"/><rect x="1530" y="390" width="7" height="10" rx="0" fill="#ffffff" opacity=".35"/><rect x="1546" y="390" width="7" height="10" rx="0" fill="#ffffff" opacity=".35"/><rect x="1562" y="390" width="7" height="10" rx="0" fill="#ffffff" opacity=".35"/><rect x="1498" y="412" width="7" height="10" rx="0" fill="#ffffff" opacity=".35"/><rect x="1514" y="412" width="7" height="10" rx="0" fill="#ffffff" opacity=".35"/><rect x="1546" y="412" width="7" height="10" rx="0" fill="#ffffff" opacity=".35"/><rect x="1562" y="412" width="7" height="10" rx="0" fill="#ffffff" opacity=".35"/><rect x="1514" y="434" width="7" height="10" rx="0" fill="#ffffff" opacity=".35"/><rect x="1530" y="434" width="7" height="10" rx="0" fill="#ffffff" opacity=".35"/><rect x="1546" y="434" width="7" height="10" rx="0" fill="#ffffff" opacity=".35"/><rect x="1514" y="456" width="7" height="10" rx="0" fill="#ffffff" opacity=".35"/><rect x="1546" y="456" width="7" height="10" rx="0" fill="#ffffff" opacity=".35"/><rect x="1562" y="456" width="7" height="10" rx="0" fill="#ffffff" opacity=".35"/><rect x="1514" y="500" width="7" height="10" rx="0" fill="#ffffff" opacity=".35"/><rect x="1530" y="500" width="7" height="10" rx="0" fill="#ffffff" opacity=".35"/><rect x="1562" y="500" width="7" height="10" rx="0" fill="#ffffff" opacity=".35"/></g><rect x="1086" y="120" width="8" height="400" rx="0" fill="#d7dee4" /><rect x="1196" y="120" width="8" height="400" rx="0" fill="#d7dee4" /><rect x="1306" y="120" width="8" height="400" rx="0" fill="#d7dee4" /><rect x="1416" y="120" width="8" height="400" rx="0" fill="#d7dee4" /><rect x="1526" y="120" width="8" height="400" rx="0" fill="#d7dee4" /><rect x="1090" y="300.0" width="440" height="6" rx="0" fill="#d7dee4" /><rect x="640" y="150" width="320" height="190" rx="6" fill="#f8f9fa" /><rect x="630" y="140" width="340" height="210" rx="8" fill="none" stroke="#b8c2cb" stroke-width="8"/><rect x="670" y="190" width="140" height="8" rx="4" fill="#9fb3c8" /><rect x="670" y="215" width="200" height="8" rx="4" fill="#c8b59a" /><rect x="670" y="240" width="110" height="8" rx="4" fill="#9fb3c8" /><circle cx="1000" cy="105" r="30" fill="#fff" stroke="#8d99a6" stroke-width="5"/><path d="M1000 105 v-18 M1000 105 h14" stroke="#4a5562" stroke-width="4" stroke-linecap="round"/><rect x="0" y="640" width="1600" height="260" rx="0" fill="url(#floor)" /><rect x="0" y="634" width="1600" height="10" rx="0" fill="#c7cfd6" /><rect x="0" y="560" width="560" height="26" rx="0" fill="#d8cfc1" /><rect x="0" y="586" width="560" height="60" rx="0" fill="#c4b8a6" /><rect x="1040" y="560" width="560" height="26" rx="0" fill="#d8cfc1" /><rect x="1040" y="586" width="560" height="60" rx="0" fill="#c4b8a6" /><rect x="0" y="470" width="560" height="92" rx="4" fill="#b9c6cf" opacity=".9"/><rect x="1040" y="470" width="560" height="92" rx="4" fill="#b9c6cf" opacity=".9"/><rect x="90" y="470" width="120.0" height="76.0" rx="6" fill="#2b313b" /><rect x="96.0" y="476.0" width="108.0" height="62.0" rx="3" fill="#5d7a99" /><rect x="144.0" y="546.0" width="12.0" height="22.0" rx="0" fill="#3a414c" /><rect x="120.0" y="566.0" width="60.0" height="6.0" rx="3" fill="#3a414c" /><rect x="330" y="470" width="120.0" height="76.0" rx="6" fill="#2b313b" /><rect x="336.0" y="476.0" width="108.0" height="62.0" rx="3" fill="#6c8aa8" /><rect x="384.0" y="546.0" width="12.0" height="22.0" rx="0" fill="#3a414c" /><rect x="360.0" y="566.0" width="60.0" height="6.0" rx="3" fill="#3a414c" /><rect x="1110" y="470" width="120.0" height="76.0" rx="6" fill="#2b313b" /><rect x="1116.0" y="476.0" width="108.0" height="62.0" rx="3" fill="#6c8aa8" /><rect x="1164.0" y="546.0" width="12.0" height="22.0" rx="0" fill="#3a414c" /><rect x="1140.0" y="566.0" width="60.0" height="6.0" rx="3" fill="#3a414c" /><rect x="1360" y="470" width="120.0" height="76.0" rx="6" fill="#2b313b" /><rect x="1366.0" y="476.0" width="108.0" height="62.0" rx="3" fill="#5d7a99" /><rect x="1414.0" y="546.0" width="12.0" height="22.0" rx="0" fill="#3a414c" /><rect x="1390.0" y="566.0" width="60.0" height="6.0" rx="3" fill="#3a414c" /><rect x="250" y="520" width="40" height="40" rx="4" fill="#e9e2d4" /><rect x="1300" y="530" width="50" height="30" rx="3" fill="#f1ece2" /><ellipse cx="564.0" cy="556.0" rx="26.4" ry="72.0" fill="#5f9466" transform="rotate(-30 564.0 556.0)"/><ellipse cx="636.0" cy="550.0" rx="26.4" ry="74.39999999999999" fill="#5f9466" transform="rotate(30 636.0 550.0)"/><ellipse cx="600.0" cy="526.0" rx="24.0" ry="84.0" fill="#5f9466" transform="rotate(0 600.0 526.0)"/><ellipse cx="540.0" cy="592.0" rx="21.599999999999998" ry="55.199999999999996" fill="#5f9466" transform="rotate(-60 540.0 592.0)"/><ellipse cx="660.0" cy="589.6" rx="21.599999999999998" ry="55.199999999999996" fill="#5f9466" transform="rotate(60 660.0 589.6)"/><path d="M554.4 640 h91.2 l-10 96.0 h-67.2 z" fill="#c9b79c"/><ellipse cx="970.0" cy="570.0" rx="22.0" ry="60.0" fill="#5f9466" transform="rotate(-30 970.0 570.0)"/><ellipse cx="1030.0" cy="565.0" rx="22.0" ry="62.0" fill="#5f9466" transform="rotate(30 1030.0 565.0)"/><ellipse cx="1000.0" cy="545.0" rx="20.0" ry="70.0" fill="#5f9466" transform="rotate(0 1000.0 545.0)"/><ellipse cx="950.0" cy="600.0" rx="18.0" ry="46.0" fill="#5f9466" transform="rotate(-60 950.0 600.0)"/><ellipse cx="1050.0" cy="598.0" rx="18.0" ry="46.0" fill="#5f9466" transform="rotate(60 1050.0 598.0)"/><path d="M962.0 640 h76.0 l-10 80.0 h-56.0 z" fill="#c9b79c"/></svg>
