<svg xmlns="http://www.w3.org/2000/svg" viewBox="0 0 1600 900" preserveAspectRatio="xMidYMid slice"><defs><linearGradient id="sky" x1="0" y1="0" x2="0" y2="1"><stop offset="0" stop-color="#7fb2d8"/><stop offset="0.6" stop-color="#cfe3ef"/><stop offset="1" stop-color="#e9f1f4"/></linearGradient><linearGradient id="sea" x1="0" y1="0" x2="0" y2="1"><stop offset="0" stop-color="#5d8aa6"/><stop offset="1" stop-color="#36597a"/></linearGradient></defs><rect x="0" y="0" width="1600" height="900" rx="0" fill="url(#sky)" /><ellipse cx="1250" cy="170" rx="90" ry="28" fill="#ffffff" opacity=".7"/><ellipse cx="380" cy="120" rx="130" ry="30" fill="#ffffff" opacity=".6"/><rect x="0" y="420" width="1600" height="140" rx="0" fill="url(#sea)" /><path d="M150 470 L1150 470 L1100 540 L210 540 Z" fill="#253246"/><rect x="150" y="462" width="1000" height="12" rx="0" fill="#b13f35" /><rect x="240" y="410" width="50" height="28" rx="2" fill="#2f6db5" /><rect x="294" y="410" width="50" height="28" rx="2" fill="#7d8a96" /><rect x="348" y="410" width="50" height="28" rx="2" fill="#7d8a96" /><rect x="402" y="410" width="50" height="28" rx="2" fill="#2f6db5" /><rect x="456" y="410" width="50" height="28" rx="2" fill="#2e8b57" /><rect x="510" y="410" width="50" height="28" rx="2" fill="#7d8a96" /><rect x="564" y="410" width="50" height="28" rx="2" fill="#d68a1c" /><rect x="618" y="410" width="50" height="28" rx="2" fill="#8e44ad" /><rect x="672" y="410" width="50" height="28" rx="2" fill="#7d8a96" /><rect x="726" y="410" width="50" height="28" rx="2" fill="#c0392b" /><rect x="780" y="410" width="50" height="28" rx="2" fill="#7d8a96" /><rect x="834" y="410" width="50" height="28" rx="2" fill="#c0392b" /><rect x="888" y="410" width="50" height="28" rx="2" fill="#16a085" /><rect x="942" y="410" width="50" height="28" rx="2" fill="#d68a1c" /><rect x="996" y="410" width="50" height="28" rx="2" fill="#2e8b57" /><rect x="1050" y="410" width="50" height="28" rx="2" fill="#7d8a96" /><rect x="240" y="380" width="50" height="28" rx="2" fill="#2f6db5" /><rect x="294" y="380" width="50" height="28" rx="2" fill="#2f6db5" /><rect x="348" y="380" width="50" height="28" rx="2" fill="#8e44ad" /><rect x="402" y="380" width="50" height="28" rx="2" fill="#d68a1c" /><rect x="456" y="380" width="50" height="28" rx="2" fill="#7d8a96" /><rect x="510" y="380" width="50" height="28" rx="2" fill="#16a085" /><rect x="564" y="380" width="50" height="28" rx="2" fill="#7d8a96" /><rect x="618" y="380" width="50" height="28" rx="2" fill="#d68a1c" /><rect x="672" y="380" width="50" height="28" rx="2" fill="#d68a1c" /><rect x="726" y="380" width="50" height="28" rx="2" fill="#8e44ad" /><rect x="780" y="380" width="50" height="28" rx="2" fill="#16a085" /><rect x="834" y="380" width="50" height="28" rx="2" fill="#2f6db5" /><rect x="888" y="380" width="50" height="28" rx="2" fill="#2f6db5" /><rect x="942" y="380" width="50" height="28" rx="2" fill="#8e44ad" /><rect x="996" y="380" width="50" height="28" rx="2" fill="#2f6db5" /><rect x="1050" y="380" width="50" height="28" rx="2" fill="#16a085" /><rect x="240" y="350" width="50" height="28" rx="2" fill="#7d8a96" /><rect x="294" y="350" width="50" height="28" rx="2" fill="#d68a1c" /><rect x="348" y="350" width="50" height="28" rx="2" fill="#8e44ad" /><rect x="402" y="350" width="50" height="28" rx="2" fill="#c0392b" /><rect x="456" y="350" width="50" height="28" rx="2" fill="#8e44ad" /><rect x="510" y="350" width="50" height="28" rx="2" fill="#16a085" /><rect x="564" y="350" width="50" height="28" rx="2" fill="#c0392b" /><rect x="618" y="350" width="50" height="28" rx="2" fill="#2f6db5" /><rect x="672" y="350" width="50" height="28" rx="2" fill="#16a085" /><rect x="726" y="350" width="50" height="28" rx="2" fill="#7d8a96" /><rect x="780" y="350" width="50" height="28" rx="2" fill="#c0392b" /><rect x="834" y="350" width="50" height="28" rx="2" fill="#2e8b57" /><rect x="888" y="350" width="50" height="28" rx="2" fill="#16a085" /><rect x="942" y="350" width="50" height="28" rx="2" fill="#c0392b" /><rect x="996" y="350" width="50" height="28" rx="2" fill="#16a085" /><rect x="1050" y="350" width="50" height="28" rx="2" fill="#16a085" /><rect x="1020" y="330" width="90" height="140" rx="4" fill="#e9edf1" /><rect x="1030" y="345" width="70" height="14" rx="3" fill="#3a4a5c" /><rect x="1030" y="370" width="70" height="14" rx="3" fill="#3a4a5c" /><rect x="330" y="160" width="22" height="420" rx="0" fill="#d9a33a" /><rect x="450" y="160" width="22" height="420" rx="0" fill="#d9a33a" /><rect x="190" y="150" width="420" height="26" rx="0" fill="#d9a33a" /><rect x="370" y="176" width="60" height="40" rx="0" fill="#3c4855" /><line x1="400" y1="216" x2="400" y2="330" stroke="#3c4855" stroke-width="4"/><rect x="760" y="160" width="22" height="420" rx="0" fill="#d9a33a" /><rect x="880" y="160" width="22" height="420" rx="0" fill="#d9a33a" /><rect x="620" y="150" width="420" height="26" rx="0" fill="#d9a33a" /><rect x="800" y="176" width="60" height="40" rx="0" fill="#3c4855" /><line x1="830" y1="216" x2="830" y2="330" stroke="#3c4855" stroke-width="4"/><rect x="1300" y="160" width="22" height="420" rx="0" fill="#d9a33a" /><rect x="1420" y="160" width="22" height="420" rx="0" fill="#d9a33a" /><rect x="1160" y="150" width="420" height="26" rx="0" fill="#d9a33a" /><rect x="1340" y="176" width="60" height="40" rx="0" fill="#3c4855" /><line x1="1370" y1="216" x2="1370" y2="330" stroke="#3c4855" stroke-width="4"/><rect x="0" y="560" width="1600" height="340" rx="0" fill="#8c9298" /><rect x="0" y="600" width="1600" height="4" rx="0" fill="#f2d34f" opacity=".6"/><rect x="0" y="670" width="1600" height="4" rx="0" fill="#f2d34f" opacity=".6"/><rect x="0" y="740" width="1600" height="4" rx="0" fill="#f2d34f" opacity=".6"/><rect x="0" y="810" width="1600" height="4" rx="0" fill="#f2d34f" opacity=".6"/><rect x="0" y="880" width="1600" height="4" rx="0" fill="#f2d34f" opacity=".6"/><rect x="40" y="760" width="230" height="60" rx="3" fill="#d68a1c" /><rect x="52" y="766" width="4" height="48" rx="0" fill="#000000" opacity=".12"/><rect x="70" y="766" width="4" height="48" rx="0" fill="#000000" opacity=".12"/><rect x="88" y="766" width="4" height="48" rx="0" fill="#000000" opacity=".12"/><rect x="106" y="766" width="4" height="48" rx="0" fill="#000000" opacity=".12"/><rect x="124" y="766" width="4" height="48" rx="0" fill="#000000" opacity=".12"/><rect x="142" y="766" width="4" height="48" rx="0" fill="#000000" opacity=".12"/><rect x="160" y="766" width="4" height="48" rx="0" fill="#000000" opacity=".12"/><rect x="178" y="766" width="4" height="48" rx="0" fill="#000000" opacity=".12"/><rect x="196" y="766" width="4" height="48" rx="0" fill="#000000" opacity=".12"/><rect x="214" y="766" width="4" height="48" rx="0" fill="#000000" opacity=".12"/><rect x="232" y="766" width="4" height="48" rx="0" fill="#000000" opacity=".12"/><rect x="250" y="766" width="4" height="48" rx="0" fill="#000000" opacity=".12"/><rect x="40" y="696" width="230" height="60" rx="3" fill="#7d8a96" /><rect x="52" y="702" width="4" height="48" rx="0" fill="#000000" opacity=".12"/><rect x="70" y="702" width="4" height="48" rx="0" fill="#000000" opacity=".12"/><rect x="88" y="702" width="4" height="48" rx="0" fill="#000000" opacity=".12"/><rect x="106" y="702" width="4" height="48" rx="0" fill="#000000" opacity=".12"/><rect x="124" y="702" width="4" height="48" rx="0" fill="#000000" opacity=".12"/><rect x="142" y="702" width="4" height="48" rx="0" fill="#000000" opacity=".12"/><rect x="160" y="702" width="4" height="48" rx="0" fill="#000000" opacity=".12"/><rect x="178" y="702" width="4" height="48" rx="0" fill="#000000" opacity=".12"/><rect x="196" y="702" width="4" height="48" rx="0" fill="#000000" opacity=".12"/><rect x="214" y="702" width="4" height="48" rx="0" fill="#000000" opacity=".12"/><rect x="232" y="702" width="4" height="48" rx="0" fill="#000000" opacity=".12"/><rect x="250" y="702" width="4" height="48" rx="0" fill="#000000" opacity=".12"/><rect x="40" y="632" width="230" height="60" rx="3" fill="#8e44ad" /><rect x="52" y="638" width="4" height="48" rx="0" fill="#000000" opacity=".12"/><rect x="70" y="638" width="4" height="48" rx="0" fill="#000000" opacity=".12"/><rect x="88" y="638" width="4" height="48" rx="0" fill="#000000" opacity=".12"/><rect x="106" y="638" width="4" height="48" rx="0" fill="#000000" opacity=".12"/><rect x="124" y="638" width="4" height="48" rx="0" fill="#000000" opacity=".12"/><rect x="142" y="638" width="4" height="48" rx="0" fill="#000000" opacity=".12"/><rect x="160" y="638" width="4" height="48" rx="0" fill="#000000" opacity=".12"/><rect x="178" y="638" width="4" height="48" rx="0" fill="#000000" opacity=".12"/><rect x="196" y="638" width="4" height="48" rx="0" fill="#000000" opacity=".12"/><rect x="214" y="638" width="4" height="48" rx="0" fill="#000000" opacity=".12"/><rect x="232" y="638" width="4" height="48" rx="0" fill="#000000" opacity=".12"/><rect x="250" y="638" width="4" height="48" rx="0" fill="#000000" opacity=".12"/><rect x="310" y="760" width="230" height="60" rx="3" fill="#8e44ad" /><rect x="322" y="766" width="4" height="48" rx="0" fill="#000000" opacity=".12"/><rect x="340" y="766" width="4" height="48" rx="0" fill="#000000" opacity=".12"/><rect x="358" y="766" width="4" height="48" rx="0" fill="#000000" opacity=".12"/><rect x="376" y="766" width="4" height="48" rx="0" fill="#000000" opacity=".12"/><rect x="394" y="766" width="4" height="48" rx="0" fill="#000000" opacity=".12"/><rect x="412" y="766" width="4" height="48" rx="0" fill="#000000" opacity=".12"/><rect x="430" y="766" width="4" height="48" rx="0" fill="#000000" opacity=".12"/><rect x="448" y="766" width="4" height="48" rx="0" fill="#000000" opacity=".12"/><rect x="466" y="766" width="4" height="48" rx="0" fill="#000000" opacity=".12"/><rect x="484" y="766" width="4" height="48" rx="0" fill="#000000" opacity=".12"/><rect x="502" y="766" width="4" height="48" rx="0" fill="#000000" opacity=".12"/><rect x="520" y="766" width="4" height="48" rx="0" fill="#000000" opacity=".12"/><rect x="310" y="696" width="230" height="60" rx="3" fill="#16a085" /><rect x="322" y="702" width="4" height="48" rx="0" fill="#000000" opacity=".12"/><rect x="340" y="702" width="4" height="48" rx="0" fill="#000000" opacity=".12"/><rect x="358" y="702" width="4" height="48" rx="0" fill="#000000" opacity=".12"/><rect x="376" y="702" width="4" height="48" rx="0" fill="#000000" opacity=".12"/><rect x="394" y="702" width="4" height="48" rx="0" fill="#000000" opacity=".12"/><rect x="412" y="702" width="4" height="48" rx="0" fill="#000000" opacity=".12"/><rect x="430" y="702" width="4" height="48" rx="0" fill="#000000" opacity=".12"/><rect x="448" y="702" width="4" height="48" rx="0" fill="#000000" opacity=".12"/><rect x="466" y="702" width="4" height="48" rx="0" fill="#000000" opacity=".12"/><rect x="484" y="702" width="4" height="48" rx="0" fill="#000000" opacity=".12"/><rect x="502" y="702" width="4" height="48" rx="0" fill="#000000" opacity=".12"/><rect x="520" y="702" width="4" height="48" rx="0" fill="#000000" opacity=".12"/><rect x="310" y="632" width="230" height="60" rx="3" fill="#d68a1c" /><rect x="322" y="638" width="4" height="48" rx="0" fill="#000000" opacity=".12"/><rect x="340" y="638" width="4" height="48" rx="0" fill="#000000" opacity=".12"/><rect x="358" y="638" width="4" height="48" rx="0" fill="#000000" opacity=".12"/><rect x="376" y="638" width="4" height="48" rx="0" fill="#000000" opacity=".12"/><rect x="394" y="638" width="4" height="48" rx="0" fill="#000000" opacity=".12"/><rect x="412" y="638" width="4" height="48" rx="0" fill="#000000" opacity=".12"/><rect x="430" y="638" width="4" height="48" rx="0" fill="#000000" opacity=".12"/><rect x="448" y="638" width="4" height="48" rx="0" fill="#000000" opacity=".12"/><rect x="466" y="638" width="4" height="48" rx="0" fill="#000000" opacity=".12"/><rect x="484" y="638" width="4" height="48" rx="0" fill="#000000" opacity=".12"/><rect x="502" y="638" width="4" height="48" rx="0" fill="#000000" opacity=".12"/><rect x="520" y="638" width="4" height="48" rx="0" fill="#000000" opacity=".12"/><rect x="580" y="760" width="230" height="60" rx="3" fill="#8e44ad" /><rect x="592" y="766" width="4" height="48" rx="0" fill="#000000" opacity=".12"/><rect x="610" y="766" width="4" height="48" rx="0" fill="#000000" opacity=".12"/><rect x="628" y="766" width="4" height="48" rx="0" fill="#000000" opacity=".12"/><rect x="646" y="766" width="4" height="48" rx="0" fill="#000000" opacity=".12"/><rect x="664" y="766" width="4" height="48" rx="0" fill="#000000" opacity=".12"/><rect x="682" y="766" width="4" height="48" rx="0" fill="#000000" opacity=".12"/><rect x="700" y="766" width="4" height="48" rx="0" fill="#000000" opacity=".12"/><rect x="718" y="766" width="4" height="48" rx="0" fill="#000000" opacity=".12"/><rect x="736" y="766" width="4" height="48" rx="0" fill="#000000" opacity=".12"/><rect x="754" y="766" width="4" height="48" rx="0" fill="#000000" opacity=".12"/><rect x="772" y="766" width="4" height="48" rx="0" fill="#000000" opacity=".12"/><rect x="790" y="766" width="4" height="48" rx="0" fill="#000000" opacity=".12"/><rect x="580" y="696" width="230" height="60" rx="3" fill="#16a085" /><rect x="592" y="702" width="4" height="48" rx="0" fill="#000000" opacity=".12"/><rect x="610" y="702" width="4" height="48" rx="0" fill="#000000" opacity=".12"/><rect x="628" y="702" width="4" height="48" rx="0" fill="#000000" opacity=".12"/><rect x="646" y="702" width="4" height="48" rx="0" fill="#000000" opacity=".12"/><rect x="664" y="702" width="4" height="48" rx="0" fill="#000000" opacity=".12"/><rect x="682" y="702" width="4" height="48" rx="0" fill="#000000" opacity=".12"/><rect x="700" y="702" width="4" height="48" rx="0" fill="#000000" opacity=".12"/><rect x="718" y="702" width="4" height="48" rx="0" fill="#000000" opacity=".12"/><rect x="736" y="702" width="4" height="48" rx="0" fill="#000000" opacity=".12"/><rect x="754" y="702" width="4" height="48" rx="0" fill="#000000" opacity=".12"/><rect x="772" y="702" width="4" height="48" rx="0" fill="#000000" opacity=".12"/><rect x="790" y="702" width="4" height="48" rx="0" fill="#000000" opacity=".12"/><rect x="580" y="632" width="230" height="60" rx="3" fill="#7d8a96" /><rect x="592" y="638" width="4" height="48" rx="0" fill="#000000" opacity=".12"/><rect x="610" y="638" width="4" height="48" rx="0" fill="#000000" opacity=".12"/><rect x="628" y="638" width="4" height="48" rx="0" fill="#000000" opacity=".12"/><rect x="646" y="638" width="4" height="48" rx="0" fill="#000000" opacity=".12"/><rect x="664" y="638" width="4" height="48" rx="0" fill="#000000" opacity=".12"/><rect x="682" y="638" width="4" height="48" rx="0" fill="#000000" opacity=".12"/><rect x="700" y="638" width="4" height="48" rx="0" fill="#000000" opacity=".12"/><rect x="718" y="638" width="4" height="48" rx="0" fill="#000000" opacity=".12"/><rect x="736" y="638" width="4" height="48" rx="0" fill="#000000" opacity=".12"/><rect x="754" y="638" width="4" height="48" rx="0" fill="#000000" opacity=".12"/><rect x="772" y="638" width="4" height="48" rx="0" fill="#000000" opacity=".12"/><rect x="790" y="638" width="4" height="48" rx="0" fill="#000000" opacity=".12"/><rect x="850" y="760" width="230" height="60" rx="3" fill="#2f6db5" /><rect x="862" y="766" width="4" height="48" rx="0" fill="#000000" opacity=".12"/><rect x="880" y="766" width="4" height="48" rx="0" fill="#000000" opacity=".12"/><rect x="898" y="766" width="4" height="48" rx="0" fill="#000000" opacity=".12"/><rect x="916" y="766" width="4" height="48" rx="0" fill="#000000" opacity=".12"/><rect x="934" y="766" width="4" height="48" rx="0" fill="#000000" opacity=".12"/><rect x="952" y="766" width="4" height="48" rx="0" fill="#000000" opacity=".12"/><rect x="970" y="766" width="4" height="48" rx="0" fill="#000000" opacity=".12"/><rect x="988" y="766" width="4" height="48" rx="0" fill="#000000" opacity=".12"/><rect x="1006" y="766" width="4" height="48" rx="0" fill="#000000" opacity=".12"/><rect x="1024" y="766" width="4" height="48" rx="0" fill="#000000" opacity=".12"/><rect x="1042" y="766" width="4" height="48" rx="0" fill="#000000" opacity=".12"/><rect x="1060" y="766" width="4" height="48" rx="0" fill="#000000" opacity=".12"/><rect x="850" y="696" width="230" height="60" rx="3" fill="#2e8b57" /><rect x="862" y="702" width="4" height="48" rx="0" fill="#000000" opacity=".12"/><rect x="880" y="702" width="4" height="48" rx="0" fill="#000000" opacity=".12"/><rect x="898" y="702" width="4" height="48" rx="0" fill="#000000" opacity=".12"/><rect x="916" y="702" width="4" height="48" rx="0" fill="#000000" opacity=".12"/><rect x="934" y="702" width="4" height="48" rx="0" fill="#000000" opacity=".12"/><rect x="952" y="702" width="4" height="48" rx="0" fill="#000000" opacity=".12"/><rect x="970" y="702" width="4" height="48" rx="0" fill="#000000" opacity=".12"/><rect x="988" y="702" width="4" height="48" rx="0" fill="#000000" opacity=".12"/><rect x="1006" y="702" width="4" height="48" rx="0" fill="#000000" opacity=".12"/><rect x="1024" y="702" width="4" height="48" rx="0" fill="#000000" opacity=".12"/><rect x="1042" y="702" width="4" height="48" rx="0" fill="#000000" opacity=".12"/><rect x="1060" y="702" width="4" height="48" rx="0" fill="#000000" opacity=".12"/><rect x="850" y="632" width="230" height="60" rx="3" fill="#c0392b" /><rect x="862" y="638" width="4" height="48" rx="0" fill="#000000" opacity=".12"/><rect x="880" y="638" width="4" height="48" rx="0" fill="#000000" opacity=".12"/><rect x="898" y="638" width="4" height="48" rx="0" fill="#000000" opacity=".12"/><rect x="916" y="638" width="4" height="48" rx="0" fill="#000000" opacity=".12"/><rect x="934" y="638" width="4" height="48" rx="0" fill="#000000" opacity=".12"/><rect x="952" y="638" width="4" height="48" rx="0" fill="#000000" opacity=".12"/><rect x="970" y="638" width="4" height="48" rx="0" fill="#000000" opacity=".12"/><rect x="988" y="638" width="4" height="48" rx="0" fill="#000000" opacity=".12"/><rect x="1006" y="638" width="4" height="48" rx="0" fill="#000000" opacity=".12"/><rect x="1024" y="638" width="4" height="48" rx="0" fill="#000000" opacity=".12"/><rect x="1042" y="638" width="4" height="48" rx="0" fill="#000000" opacity=".12"/><rect x="1060" y="638" width="4" height="48" rx="0" fill="#000000" opacity=".12"/><rect x="1120" y="760" width="230" height="60" rx="3" fill="#2f6db5" /><rect x="1132" y="766" width="4" height="48" rx="0" fill="#000000" opacity=".12"/><rect x="1150" y="766" width="4" height="48" rx="0" fill="#000000" opacity=".12"/><rect x="1168" y="766" width="4" height="48" rx="0" fill="#000000" opacity=".12"/><rect x="1186" y="766" width="4" height="48" rx="0" fill="#000000" opacity=".12"/><rect x="1204" y="766" width="4" height="48" rx="0" fill="#000000" opacity=".12"/><rect x="1222" y="766" width="4" height="48" rx="0" fill="#000000" opacity=".12"/><rect x="1240" y="766" width="4" height="48" rx="0" fill="#000000" opacity=".12"/><rect x="1258" y="766" width="4" height="48" rx="0" fill="#000000" opacity=".12"/><rect x="1276" y="766" width="4" height="48" rx="0" fill="#000000" opacity=".12"/><rect x="1294" y="766" width="4" height="48" rx="0" fill="#000000" opacity=".12"/><rect x="1312" y="766" width="4" height="48" rx="0" fill="#000000" opacity=".12"/><rect x="1330" y="766" width="4" height="48" rx="0" fill="#000000" opacity=".12"/><rect x="1120" y="696" width="230" height="60" rx="3" fill="#d68a1c" /><rect x="1132" y="702" width="4" height="48" rx="0" fill="#000000" opacity=".12"/><rect x="1150" y="702" width="4" height="48" rx="0" fill="#000000" opacity=".12"/><rect x="1168" y="702" width="4" height="48" rx="0" fill="#000000" opacity=".12"/><rect x="1186" y="702" width="4" height="48" rx="0" fill="#000000" opacity=".12"/><rect x="1204" y="702" width="4" height="48" rx="0" fill="#000000" opacity=".12"/><rect x="1222" y="702" width="4" height="48" rx="0" fill="#000000" opacity=".12"/><rect x="1240" y="702" width="4" height="48" rx="0" fill="#000000" opacity=".12"/><rect x="1258" y="702" width="4" height="48" rx="0" fill="#000000" opacity=".12"/><rect x="1276" y="702" width="4" height="48" rx="0" fill="#000000" opacity=".12"/><rect x="1294" y="702" width="4" height="48" rx="0" fill="#000000" opacity=".12"/><rect x="1312" y="702" width="4" height="48" rx="0" fill="#000000" opacity=".12"/><rect x="1330" y="702" width="4" height="48" rx="0" fill="#000000" opacity=".12"/><rect x="1390" y="760" width="230" height="60" rx="3" fill="#2e8b57" /><rect x="1402" y="766" width="4" height="48" rx="0" fill="#000000" opacity=".12"/><rect x="1420" y="766" width="4" height="48" rx="0" fill="#000000" opacity=".12"/><rect x="1438" y="766" width="4" height="48" rx="0" fill="#000000" opacity=".12"/><rect x="1456" y="766" width="4" height="48" rx="0" fill="#000000" opacity=".12"/><rect x="1474" y="766" width="4" height="48" rx="0" fill="#000000" opacity=".12"/><rect x="1492" y="766" width="4" height="48" rx="0" fill="#000000" opacity=".12"/><rect x="1510" y="766" width="4" height="48" rx="0" fill="#000000" opacity=".12"/><rect x="1528" y="766" width="4" height="48" rx="0" fill="#000000" opacity=".12"/><rect x="1546" y="766" width="4" height="48" rx="0" fill="#000000" opacity=".12"/><rect x="1564" y="766" width="4" height="48" rx="0" fill="#000000" opacity=".12"/><rect x="1582" y="766" width="4" height="48" rx="0" fill="#000000" opacity=".12"/><rect x="1600" y="766" width="4" height="48" rx="0" fill="#000000" opacity=".12"/><rect x="1390" y="696" width="230" height="60" rx="3" fill="#8e44ad" /><rect x="1402" y="702" width="4" height="48" rx="0" fill="#000000" opacity=".12"/><rect x="1420" y="702" width="4" height="48" rx="0" fill="#000000" opacity=".12"/><rect x="1438" y="702" width="4" height="48" rx="0" fill="#000000" opacity=".12"/><rect x="1456" y="702" width="4" height="48" rx="0" fill="#000000" opacity=".12"/><rect x="1474" y="702" width="4" height="48" rx="0" fill="#000000" opacity=".12"/><rect x="1492" y="702" width="4" height="48" rx="0" fill="#000000" opacity=".12"/><rect x="1510" y="702" width="4" height="48" rx="0" fill="#000000" opacity=".12"/><rect x="1528" y="702" width="4" height="48" rx="0" fill="#000000" opacity=".12"/><rect x="1546" y="702" width="4" height="48" rx="0" fill="#000000" opacity=".12"/><rect x="1564" y="702" width="4" height="48" rx="0" fill="#000000" opacity=".12"/><rect x="1582" y="702" width="4" height="48" rx="0" fill="#000000" opacity=".12"/><rect x="1600" y="702" width="4" height="48" rx="0" fill="#000000" opacity=".12"/></svg>
